<svg id="visual" viewBox="0 0 960 540" width="960" height="540" xmlns="http://www.w3.org/2000/svg" xmlns:xlink="http://www.w3.org/1999/xlink" version="1.1"><path d="M0 201L16 196.5C32 192 64 183 96 177.5C128 172 160 170 192 162.8C224 155.7 256 143.3 288 153.3C320 163.3 352 195.7 384 183.8C416 172 448 116 480 100.7C512 85.3 544 110.7 576 134.2C608 157.7 640 179.3 672 189.2C704 199 736 197 768 183.5C800 170 832 145 864 143.3C896 141.7 928 163.3 944 174.2L960 185L960 0L944 0C928 0 896 0 864 0C832 0 800 0 768 0C736 0 704 0 672 0C640 0 608 0 576 0C544 0 512 0 480 0C448 0 416 0 384 0C352 0 320 0 288 0C256 0 224 0 192 0C160 0 128 0 96 0C64 0 32 0 16 0L0 0Z" fill="#2c3333"></path><path d="M0 368L16 360C32 352 64 336 96 338.7C128 341.3 160 362.7 192 360.8C224 359 256 334 288 330.5C320 327 352 345 384 341.3C416 337.7 448 312.3 480 294.3C512 276.3 544 265.7 576 274.7C608 283.7 640 312.3 672 331.2C704 350 736 359 768 351.8C800 344.7 832 321.3 864 316C896 310.7 928 323.3 944 329.7L960 336L960 183L944 172.2C928 161.3 896 139.7 864 141.3C832 143 800 168 768 181.5C736 195 704 197 672 187.2C640 177.3 608 155.7 576 132.2C544 108.7 512 83.3 480 98.7C448 114 416 170 384 181.8C352 193.7 320 161.3 288 151.3C256 141.3 224 153.7 192 160.8C160 168 128 170 96 175.5C64 181 32 190 16 194.5L0 199Z" fill="#3a4444"></path><path d="M0 422L16 417.5C32 413 64 404 96 404C128 404 160 413 192 418.5C224 424 256 426 288 432.3C320 438.7 352 449.3 384 446.5C416 443.7 448 427.3 480 415.7C512 404 544 397 576 397C608 397 640 404 672 406.7C704 409.3 736 407.7 768 408.7C800 409.7 832 413.3 864 414.2C896 415 928 413 944 412L960 411L960 334L944 327.7C928 321.3 896 308.7 864 314C832 319.3 800 342.7 768 349.8C736 357 704 348 672 329.2C640 310.3 608 281.7 576 272.7C544 263.7 512 274.3 480 292.3C448 310.3 416 335.7 384 339.3C352 343 320 325 288 328.5C256 332 224 357 192 358.8C160 360.7 128 339.3 96 336.7C64 334 32 350 16 358L0 366Z" fill="#434f4f"></path><path d="M0 514L16 508.7C32 503.3 64 492.7 96 491.8C128 491 160 500 192 504.5C224 509 256 509 288 508C320 507 352 505 384 505C416 505 448 507 480 493.5C512 480 544 451 576 445.5C608 440 640 458 672 466.2C704 474.3 736 472.7 768 479C800 485.3 832 499.7 864 498.7C896 497.7 928 481.3 944 473.2L960 465L960 409L944 410C928 411 896 413 864 412.2C832 411.3 800 407.7 768 406.7C736 405.7 704 407.3 672 404.7C640 402 608 395 576 395C544 395 512 402 480 413.7C448 425.3 416 441.7 384 444.5C352 447.3 320 436.7 288 430.3C256 424 224 422 192 416.5C160 411 128 402 96 402C64 402 32 411 16 415.5L0 420Z" fill="#3a4444"></path><path d="M0 541L16 541C32 541 64 541 96 541C128 541 160 541 192 541C224 541 256 541 288 541C320 541 352 541 384 541C416 541 448 541 480 541C512 541 544 541 576 541C608 541 640 541 672 541C704 541 736 541 768 541C800 541 832 541 864 541C896 541 928 541 944 541L960 541L960 463L944 471.2C928 479.3 896 495.7 864 496.7C832 497.7 800 483.3 768 477C736 470.7 704 472.3 672 464.2C640 456 608 438 576 443.5C544 449 512 478 480 491.5C448 505 416 503 384 503C352 503 320 505 288 506C256 507 224 507 192 502.5C160 498 128 489 96 489.8C64 490.7 32 501.3 16 506.7L0 512Z" fill="#2c3333"></path></svg>